<svg xmlns="http://www.w3.org/2000/svg" width="65" height="64" viewBox="0 0 65 64" fill="none">
  <g clip-path="url(#clip0_602_49595)">
    <path d="M9.95312 13.5519L22.2512 1.25391C22.2512 1.25391 42.1491 1.25391 50.9466 1.25391C52.0339 1.25391 53.0766 1.68534 53.8453 2.45497C54.6142 3.2236 55.046 4.26592 55.046 5.35317C55.046 16.5331 55.046 47.4648 55.046 58.6447C55.046 59.7321 54.6141 60.7743 53.8453 61.5429C53.0766 62.3127 52.0339 62.7441 50.9466 62.7441C42.3718 62.7441 22.6274 62.7441 14.0525 62.7441C11.7885 62.7441 9.95312 60.9086 9.95312 58.6447C9.95312 46.8304 9.95312 13.5519 9.95312 13.5519Z" fill="white"/>
    <path d="M15.1368 13.9484C15.1368 11.9133 15.3051 9.91775 15.6236 7.97266L10.0352 13.561C10.0352 13.561 10.0352 46.8395 10.0352 58.6538C10.0352 60.9176 11.8706 62.7531 14.1345 62.7531C22.7094 62.7531 42.4538 62.7531 51.0287 62.7531C52.1159 62.7531 53.1586 62.3217 53.9274 61.5521C54.6962 60.7834 55.128 59.7411 55.128 58.6539C55.128 56.5518 55.128 53.7514 55.128 50.5153C54.0482 50.6108 52.9557 50.6625 51.851 50.6625C31.5743 50.6624 15.1368 34.225 15.1368 13.9484Z" fill="#D2DCFD"/>
    <path d="M24.3008 11.5023C24.3008 7.2615 24.3008 1.25391 24.3008 1.25391C23.0115 1.25391 22.2512 1.25391 22.2512 1.25391L9.95312 13.5519C9.95312 13.5519 9.95312 14.2966 9.95312 15.6016C9.95312 15.6016 15.9611 15.6016 20.2015 15.6016C22.4655 15.6016 24.3008 13.7662 24.3008 11.5023Z" fill="#D2DCFD"/>
    <path d="M32.4992 48.1234C39.2912 48.1234 44.7973 42.6174 44.7973 35.8254C44.7973 29.0334 39.2912 23.5273 32.4992 23.5273C25.7072 23.5273 20.2012 29.0334 20.2012 35.8254C20.2012 42.6174 25.7072 48.1234 32.4992 48.1234Z" fill="#B1D952"/>
    <path d="M54.7332 1.56913C53.7224 0.557302 52.3776 0 50.9467 0H22.2512C21.9184 0 21.5991 0.132267 21.3638 0.367561L9.0658 12.6656C8.83051 12.9009 8.69824 13.2201 8.69824 13.5529V58.6458C8.69824 61.5981 11.1001 64 14.0525 64H50.9467C52.3776 64 53.7224 63.4427 54.7326 62.4315C55.744 61.4204 56.3009 60.0759 56.3009 58.6458V5.35429C56.3009 3.92408 55.7439 2.57958 54.7332 1.56913ZM22.771 2.5098H23.0459V11.5033C23.0459 13.0717 21.7699 14.3478 20.2016 14.3478H11.208V14.0728L22.771 2.5098ZM53.7911 58.6458C53.7911 59.4054 53.4954 60.1196 52.9574 60.6572C52.4209 61.1944 51.7066 61.4902 50.9467 61.4902H14.0525C12.484 61.4902 11.208 60.2142 11.208 58.6458V16.8576H20.2016C23.1538 16.8576 25.5557 14.4557 25.5557 11.5033V2.5098H50.9467C51.7067 2.5098 52.4209 2.80558 52.958 3.34356C53.4952 3.88053 53.7911 4.5947 53.7911 5.35429V58.6458Z" fill="#052A75"/>
    <path d="M32.4992 49.3793C25.0262 49.3793 18.9463 43.2994 18.9463 35.8264C18.9463 28.3533 25.0262 22.2734 32.4992 22.2734C39.9724 22.2734 46.0522 28.3533 46.0522 35.8264C46.0522 43.2994 39.9724 49.3793 32.4992 49.3793ZM32.4992 24.7832C26.4101 24.7832 21.4561 29.7372 21.4561 35.8264C21.4561 41.9157 26.4101 46.8695 32.4992 46.8695C38.5884 46.8695 43.5424 41.9157 43.5424 35.8264C43.5424 29.7372 38.5884 24.7832 32.4992 24.7832Z" fill="#052A75"/>
    <path d="M31.4744 42.2065C31.1427 42.2065 30.8232 42.0751 30.587 41.839L26.4876 37.7396C25.9976 37.2495 25.9976 36.4549 26.4876 35.9649C26.9777 35.4749 27.7723 35.4749 28.2625 35.9649L31.3387 39.0412L36.6196 32C37.0355 31.4456 37.8222 31.3333 38.3765 31.7491C38.9309 32.1649 39.0433 32.9515 38.6274 33.5059L32.4784 41.7047C32.2602 41.9957 31.9264 42.1778 31.5635 42.2035C31.5336 42.2054 31.504 42.2065 31.4744 42.2065Z" fill="#052A75"/>
  </g>
  <defs>
    <clipPath id="clip0_602_49595">
      <rect width="64" height="64" fill="white" transform="translate(0.5)"/>
    </clipPath>
  </defs>
</svg>